<svg version="1.1" xmlns="http://www.w3.org/2000/svg" xmlns:xlink="http://www.w3.org/1999/xlink" width="228.2054" height="89.6189" viewBox="-352.43361,-662.20222,228.2054,89.6189" id="Actual Size"><g fill="none" fill-rule="nonzero" stroke="none" stroke-width="1" stroke-linecap="butt" stroke-linejoin="miter" stroke-miterlimit="10" stroke-dasharray="" stroke-dashoffset="0" font-family="none" font-weight="none" font-size="none" text-anchor="none" style="mix-blend-mode: normal"><path d="M-352.43361,-572.58332v-89.6189h228.2054v89.6189z" fill="none"/><path d="M-325.18277,-576.95019c-0.82278,0 -1.55053,-0.31641 -2.18344,-0.94932c-0.63291,-0.63291 -0.94932,-1.39237 -0.94932,-2.27837c0,-0.886 0.31641,-1.62971 0.94932,-2.23091c0.63291,-0.6012 1.36066,-0.90185 2.18344,-0.90185c0.886,0 1.66132,0.31641 2.32584,0.94932c0.66452,0.63291 0.99678,1.36066 0.99678,2.18344c0,0.886 -0.33226,1.64546 -0.99678,2.27837c-0.66452,0.63291 -1.43984,0.94932 -2.32584,0.94932zM-325.08784,-579.32349c0.25318,0 0.45881,-0.07909 0.61706,-0.23734c0.15825,-0.15825 0.23733,-0.36387 0.23733,-0.61705c0,-0.25318 -0.07908,-0.45881 -0.23733,-0.61706c-0.15825,-0.15825 -0.36388,-0.23733 -0.61706,-0.23733c-0.25318,0 -0.45881,0.07908 -0.61706,0.23733c-0.15825,0.15825 -0.23733,0.36388 -0.23733,0.61706c0,0.25318 0.07908,0.4588 0.23733,0.61705c0.15825,0.15825 0.36388,0.23734 0.61706,0.23734zM-325.08784,-581.22214c-0.75946,0 -1.40813,-0.31641 -1.94611,-0.94932c-0.53798,-0.63291 -0.80692,-1.39237 -0.80692,-2.27837c0,-0.94932 0.26894,-1.74039 0.80692,-2.3733c0.53798,-0.63291 1.18665,-0.94932 1.94611,-0.94932c0.75946,0 1.40813,0.31641 1.94611,0.94932c0.53798,0.63291 0.80692,1.42398 0.80692,2.3733c0,0.886 -0.2848,1.64546 -0.85439,2.27837c-0.56959,0.63291 -1.2025,0.94932 -1.89864,0.94932zM-324.13852,-580.55761c-0.37973,-0.63291 -0.44304,-1.32905 -0.18986,-2.08851c0.25318,-0.75946 0.75945,-1.36066 1.51891,-1.80371c0.75946,-0.44305 1.59799,-0.56959 2.5157,-0.37973c0.91771,0.18986 1.53477,0.5696 1.85118,1.13919c0.37973,0.56959 0.45881,1.2025 0.23733,1.89864c-0.22148,0.69614 -0.64867,1.29744 -1.28158,1.80371c-0.82278,0.44305 -1.72464,0.6012 -2.70557,0.47466c-0.98093,-0.12654 -1.6297,-0.47466 -1.94611,-1.04425zM-318.44259,-576.47553c-0.37973,0.63291 -0.99679,1.01264 -1.85118,1.13918c-0.85439,0.12654 -1.69292,-0.03161 -2.5157,-0.47466c-0.82278,-0.44305 -1.37651,-1.04425 -1.66131,-1.80371c-0.2848,-0.75946 -0.23733,-1.45559 0.1424,-2.0885c0.31641,-0.63291 0.94932,-1.01265 1.89864,-1.13919c0.94932,-0.12654 1.83532,0.03161 2.6581,0.47466c0.63291,0.50627 1.10757,1.13918 1.42398,1.89864c0.31641,0.75946 0.2848,1.42399 -0.09493,1.99358zM-325.08784,-572.58332c-0.75946,0 -1.40813,-0.30065 -1.94611,-0.90185c-0.53798,-0.6012 -0.80692,-1.37652 -0.80692,-2.32584c0,-0.886 0.26894,-1.66131 0.80692,-2.32583c0.53798,-0.66452 1.18665,-0.99679 1.94611,-0.99679c0.69614,0 1.32905,0.33227 1.89864,0.99679c0.56959,0.66452 0.85439,1.43983 0.85439,2.32583c0,0.94932 -0.26894,1.72464 -0.80692,2.32584c-0.53798,0.6012 -1.18665,0.90185 -1.94611,0.90185zM-331.82802,-576.47553c-0.37973,-0.63291 -0.44304,-1.32905 -0.18986,-2.08851c0.25318,-0.75946 0.79106,-1.36066 1.61384,-1.80371c0.82278,-0.44305 1.69293,-0.6012 2.61064,-0.47466c0.91771,0.12654 1.56637,0.50628 1.9461,1.13919c0.31641,0.63291 0.33227,1.32904 0.04747,2.0885c-0.2848,0.75946 -0.83853,1.36066 -1.66131,1.80371c-0.82278,0.44305 -1.67717,0.6012 -2.56317,0.47466c-0.886,-0.12654 -1.4873,-0.50627 -1.80371,-1.13918zM-326.03716,-580.55761c-0.37973,0.56959 -0.99679,0.91771 -1.85118,1.04425c-0.85439,0.12654 -1.69292,-0.03161 -2.5157,-0.47466c-0.82278,-0.44305 -1.36066,-1.01264 -1.61384,-1.70878c-0.25318,-0.69614 -0.18987,-1.36066 0.18986,-1.99357c0.31641,-0.56959 0.93347,-0.94933 1.85118,-1.13919c0.91771,-0.18986 1.75624,-0.06332 2.5157,0.37973c0.75946,0.44305 1.26573,1.04425 1.51891,1.80371c0.25318,0.75946 0.22148,1.4556 -0.09493,2.08851zM-345.59317,-574.29209c-0.18986,-0.31641 -0.06332,-0.712 0.37973,-1.18666c0.44305,-0.47466 1.07586,-0.90185 1.89864,-1.28158c0.82278,-0.37973 1.56638,-0.6012 2.2309,-0.66452c0.66452,-0.06332 1.06011,0.06332 1.18665,0.37973c0.12654,0.31641 -0.03161,0.71199 -0.47466,1.18665c-0.44305,0.47466 -1.07586,0.90185 -1.89864,1.28158c-0.75946,0.37973 -1.47145,0.6012 -2.13597,0.66452c-0.66452,0.06332 -1.06011,-0.06331 -1.18665,-0.37972zM-346.06783,-579.22856c-0.25318,0 -0.45881,-0.07908 -0.61706,-0.23733c-0.15825,-0.15825 -0.23733,-0.33227 -0.23733,-0.52213c0,-0.18986 0.07908,-0.34812 0.23733,-0.47466c0.15825,-0.12654 0.36388,-0.18986 0.61706,-0.18986h10.53746c0.63291,0 0.94932,0.22147 0.94932,0.66452c0,0.25318 -0.07908,0.44305 -0.23733,0.56959c-0.15825,0.12654 -0.39558,0.18987 -0.71199,0.18987zM-339.89725,-582.83598c-0.12654,0.31641 -0.52213,0.44305 -1.18665,0.37973c-0.66452,-0.06332 -1.40812,-0.2848 -2.2309,-0.66453c-0.82278,-0.37973 -1.45559,-0.80692 -1.89864,-1.28158c-0.44305,-0.47466 -0.56959,-0.87024 -0.37973,-1.18665c0.12654,-0.31641 0.52213,-0.44305 1.18665,-0.37973c0.66452,0.06332 1.37651,0.28479 2.13597,0.66452c0.82278,0.37973 1.45559,0.80693 1.89864,1.28159c0.44305,0.47466 0.6012,0.87024 0.47466,1.18665zM-310.27843,-582.83598c-0.12654,-0.31641 0.03161,-0.71199 0.47466,-1.18665c0.44305,-0.47466 1.07586,-0.90186 1.89864,-1.28159c0.75946,-0.37973 1.47145,-0.6012 2.13597,-0.66452c0.66452,-0.06332 1.09173,0.06332 1.28159,0.37973c0.12654,0.31641 -0.03161,0.71199 -0.47466,1.18665c-0.44305,0.47466 -1.07587,0.90185 -1.89865,1.28158c-0.75946,0.37973 -1.48729,0.60121 -2.18343,0.66453c-0.69614,0.06332 -1.10758,-0.06332 -1.23412,-0.37973zM-314.74024,-579.22856c-0.25318,0 -0.45881,-0.07908 -0.61706,-0.23733c-0.15825,-0.15825 -0.23733,-0.33227 -0.23733,-0.52213c0,-0.18986 0.07908,-0.34812 0.23733,-0.47466c0.15825,-0.12654 0.36388,-0.18986 0.61706,-0.18986h10.63239c0.25318,0 0.45881,0.06332 0.61706,0.18986c0.15825,0.12654 0.23733,0.2848 0.23733,0.47466c0,0.25318 -0.07908,0.44305 -0.23733,0.56959c-0.15825,0.12654 -0.36388,0.18987 -0.61706,0.18987zM-304.48757,-574.29209c-0.18986,0.31641 -0.61707,0.44304 -1.28159,0.37972c-0.66452,-0.06332 -1.37651,-0.28479 -2.13597,-0.66452c-0.82278,-0.37973 -1.45559,-0.80692 -1.89864,-1.28158c-0.44305,-0.47466 -0.6012,-0.87024 -0.47466,-1.18665c0.12654,-0.31641 0.52213,-0.44305 1.18665,-0.37973c0.66452,0.06332 1.40812,0.28479 2.2309,0.66452c0.82278,0.37973 1.4556,0.80692 1.89865,1.28158c0.44305,0.47466 0.6012,0.87025 0.47466,1.18666z" data-paper-data="{&quot;type&quot;:&quot;Icon CompoundPath&quot;,&quot;isSubtraction&quot;:false}" fill="#470c3b"/><path d="M-323.45361,-599.14445c-4.08,2.09333 -8.16,3.14 -12.24,3.14c-5.49333,0 -9.65667,-1.03333 -12.49,-3.1c-2.83333,-2.06667 -4.25,-5.08333 -4.25,-9.05c0,-8.10667 5.38333,-12.16 16.15,-12.16h8.92c0,-3.28667 -0.69333,-5.71 -2.08,-7.27c-1.38667,-1.56 -3.1,-2.34 -5.14,-2.34c-1.24667,0 -2.39667,0.08667 -3.45,0.26c-1.04667,0.17333 -2.08,0.42667 -3.1,0.76l-0.76,4l-8.93,-1.11l1.62,-9.52c2.32,-0.78667 4.71333,-1.39333 7.18,-1.82c2.46667,-0.42667 5.08667,-0.64 7.86,-0.64c5.66667,0 10.01667,1.48667 13.05,4.46c3.03333,2.98 4.55,7.36 4.55,13.14v13.85l6.88,2.21l-2.97,8.84zM-336.03361,-613.60445c-1.75333,0 -3.1,0.47 -4.04,1.41c-0.93333,0.93333 -1.4,2.22333 -1.4,3.87c0,3 2.04,4.5 6.12,4.5c2.83333,0 5.49667,-0.73667 7.99,-2.21v-7.57z" data-paper-data="{&quot;type&quot;:&quot;Letter CompoundPath&quot;,&quot;isSubtraction&quot;:false}" fill="#470c3b"/><path d="M-316.03867,-662.20222l14.88,5.1v29.32h6.37l4.76,-7.99h-4.33v-7.4h20.06v7.4h-6.55l-7.31,11.31l7.74,11.73h7.14v7.39h-11.82l-9.52,-15.13h-6.54v7.74h2.97v7.39h-19.38v-7.39h7.14v-39.28l-8.07,-2.72z" data-paper-data="{&quot;type&quot;:&quot;Letter CompoundPath&quot;,&quot;isSubtraction&quot;:false}" fill="#470c3b"/><path d="M-261.07361,-635.667c4.02,0 7.47667,0.79333 10.37,2.38c2.88667,1.58667 5.12333,3.88 6.71,6.88c1.58667,3.00667 2.38,6.60667 2.38,10.8c0,6.23333 -1.75667,11.12 -5.27,14.66c-3.51333,3.54667 -8.24333,5.32 -14.19,5.32c-3.85333,0 -7.22667,-0.79333 -10.12,-2.38c-2.88667,-1.59333 -5.11,-3.89 -6.67,-6.89c-1.56,-3 -2.34,-6.57 -2.34,-10.71c0,-4.19333 0.78,-7.79333 2.34,-10.8c1.56,-3 3.78333,-5.29333 6.67,-6.88c2.89333,-1.58667 6.26667,-2.38 10.12,-2.38zM-260.99361,-629.117c-3.68,0 -6.45667,1.17333 -8.33,3.52c-1.86667,2.35333 -2.8,5.68333 -2.8,9.99c0,4.30667 0.93333,7.62 2.8,9.94c1.87333,2.32667 4.65,3.49 8.33,3.49c3.74,0 6.56,-1.16333 8.46,-3.49c1.9,-2.32 2.85,-5.63333 2.85,-9.94c0,-4.30667 -0.95,-7.63667 -2.85,-9.99c-1.9,-2.34667 -4.72,-3.52 -8.46,-3.52z" data-paper-data="{&quot;type&quot;:&quot;Letter CompoundPath&quot;,&quot;isSubtraction&quot;:false}" fill="#470c3b"/><path d="M-244.38043,-655.63944c2.04,-1.30667 4.25,-2.31333 6.63,-3.02c2.38,-0.70667 4.76,-1.06 7.14,-1.06c2.1,0 3.37667,0.11333 3.83,0.34l1.44,9.27l-6.03,1.27l-0.85,-4.68c-1.76,0 -3.54667,0.25667 -5.36,0.77c-1.81333,0.50667 -3.42667,1.21333 -4.84,2.12v23.21h8.33v5.78h-22.78v-5.78h7.14v-23.55l-8.16,-2.8l1.95,-5.78z" data-paper-data="{&quot;type&quot;:&quot;Letter CompoundPath&quot;,&quot;isSubtraction&quot;:false}" fill="#470c3b"/><path d="M-234.67683,-591.46858v-5.44h7.14v-42.59l-8.42,-1.95l1.45,-5.52l13.77,3.22v46.84h7.14v5.44z" data-paper-data="{&quot;type&quot;:&quot;Letter CompoundPath&quot;,&quot;isSubtraction&quot;:false}" fill="#470c3b"/><path d="M-208.99543,-611.50815c1.41333,0 2.64333,0.52333 3.69,1.57c1.05333,1.04667 1.58,2.28 1.58,3.7c0,1.41333 -0.52667,2.64333 -1.58,3.69c-1.04667,1.05333 -2.27667,1.58 -3.69,1.58c-1.42,0 -2.65333,-0.52667 -3.7,-1.58c-1.04667,-1.04667 -1.57,-2.27667 -1.57,-3.69c0,-1.42 0.52333,-2.65333 1.57,-3.7c1.04667,-1.04667 2.28,-1.57 3.7,-1.57z" data-paper-data="{&quot;type&quot;:&quot;Letter CompoundPath&quot;,&quot;isSubtraction&quot;:false}" fill="#470c3b"/><path d="M-206.50182,-593.49133v-4.53176h6.25977l9.36,-11.088l-10.224,-10.80847h-5.39577v-4.464h16.33977v4.464h-3.81177l7.632,8.14023l6.69177,-8.14023h-3.168v-4.464h14.4v4.464h-5.39577l-9.43623,11.30823l10.08,10.58824h6.048v4.53176h-16.416v-4.53176h3.24423l-7.488,-7.78447l-6.55623,7.78447h3.168v4.53176z" data-paper-data="{&quot;type&quot;:&quot;Letter CompoundPath&quot;,&quot;isSubtraction&quot;:false}" fill="#470c3b"/><path d="M-169.79972,-603.5084c-0.76667,0 -1.55667,-0.06 -2.37,-0.18c-0.82,-0.12 -1.68333,-0.34667 -2.59,-0.68l0.93,-4.54c0.67333,0.19333 1.29667,0.33667 1.87,0.43c0.58,0.1 1.15667,0.15 1.73,0.15c1.34667,0 2.44,-0.20333 3.28,-0.61c0.84,-0.41333 1.62,-1.22 2.34,-2.42c0.72,-1.2 1.46333,-2.97333 2.23,-5.32l10.3,-29.45h-3.96l0.07,-4.68h14.69v4.68h-5.19l-11.95,32.69c-1.15333,3.21333 -2.66667,5.67333 -4.54,7.38c-1.86667,1.7 -4.14667,2.55 -6.84,2.55zM-160.79972,-614.7384l-14.68,-31.39h-5.19v-4.68h15.34v4.68h-4.11l11.09,25.27z" data-paper-data="{&quot;type&quot;:&quot;Letter CompoundPath&quot;,&quot;isSubtraction&quot;:false}" fill="#470c3b"/><path d="M-152.30821,-590.3469v-4.38777l18.78777,-21.75247h-13.392l-0.78777,4.032l-5.616,-1.14353l1.584,-8.064h25.84377v4.176l-19.008,21.95577h14.256l0.72,-4.39624l5.69223,1.08424l-1.66023,8.496z" data-paper-data="{&quot;type&quot;:&quot;Letter CompoundPath&quot;,&quot;isSubtraction&quot;:false}" fill="#470c3b"/><path d="M-280.95966,-576.95019c-0.82278,0 -1.55053,-0.31641 -2.18344,-0.94932c-0.63291,-0.63291 -0.94932,-1.39237 -0.94932,-2.27837c0,-0.886 0.31641,-1.62971 0.94932,-2.23091c0.63291,-0.6012 1.36066,-0.90185 2.18344,-0.90185c0.886,0 1.66131,0.31641 2.32583,0.94932c0.66452,0.63291 0.99679,1.36066 0.99679,2.18344c0,0.886 -0.33227,1.64546 -0.99679,2.27837c-0.66452,0.63291 -1.43983,0.94932 -2.32583,0.94932zM-280.86473,-579.32349c0.25318,0 0.45881,-0.07908 0.61706,-0.23733c0.15825,-0.15825 0.23733,-0.36388 0.23733,-0.61706c0,-0.25318 -0.07908,-0.45881 -0.23733,-0.61706c-0.15825,-0.15825 -0.36388,-0.23733 -0.61706,-0.23733c-0.25318,0 -0.45881,0.07908 -0.61706,0.23733c-0.15825,0.15825 -0.23733,0.36388 -0.23733,0.61706c0,0.25318 0.07908,0.45881 0.23733,0.61706c0.15825,0.15825 0.36388,0.23733 0.61706,0.23733zM-280.86473,-581.22214c-0.75946,0 -1.40813,-0.31641 -1.94611,-0.94932c-0.53798,-0.63291 -0.80692,-1.39237 -0.80692,-2.27837c0,-0.94932 0.26894,-1.74039 0.80692,-2.3733c0.53798,-0.63291 1.18665,-0.94932 1.94611,-0.94932c0.75946,0 1.40813,0.31641 1.94611,0.94932c0.53798,0.63291 0.80692,1.42398 0.80692,2.3733c0,0.886 -0.2848,1.64546 -0.85439,2.27837c-0.56959,0.63291 -1.2025,0.94932 -1.89864,0.94932zM-279.91541,-580.55761c-0.37973,-0.63291 -0.44304,-1.32905 -0.18986,-2.08851c0.25318,-0.75946 0.75945,-1.36066 1.51891,-1.80371c0.75946,-0.44305 1.59799,-0.56959 2.5157,-0.37973c0.91771,0.18986 1.53477,0.5696 1.85118,1.13919c0.37973,0.56959 0.45881,1.2025 0.23733,1.89864c-0.22148,0.69614 -0.64868,1.29744 -1.28159,1.80371c-0.82278,0.44305 -1.72463,0.6012 -2.70556,0.47466c-0.98093,-0.12654 -1.6297,-0.47466 -1.94611,-1.04425zM-274.21948,-576.47553c-0.37973,0.63291 -0.99679,1.01264 -1.85118,1.13918c-0.85439,0.12654 -1.69292,-0.03161 -2.5157,-0.47466c-0.82278,-0.44305 -1.37651,-1.04425 -1.66131,-1.80371c-0.2848,-0.75946 -0.23733,-1.45559 0.1424,-2.0885c0.31641,-0.63291 0.94932,-1.01265 1.89864,-1.13919c0.94932,-0.12654 1.83532,0.03161 2.6581,0.47466c0.63291,0.50627 1.10757,1.13918 1.42398,1.89864c0.31641,0.75946 0.2848,1.42399 -0.09493,1.99358zM-280.86473,-572.58332c-0.75946,0 -1.40813,-0.30065 -1.94611,-0.90185c-0.53798,-0.6012 -0.80692,-1.37652 -0.80692,-2.32584c0,-0.886 0.26894,-1.66131 0.80692,-2.32583c0.53798,-0.66452 1.18665,-0.99679 1.94611,-0.99679c0.69614,0 1.32905,0.33227 1.89864,0.99679c0.56959,0.66452 0.85439,1.43983 0.85439,2.32583c0,0.94932 -0.26894,1.72464 -0.80692,2.32584c-0.53798,0.6012 -1.18665,0.90185 -1.94611,0.90185zM-287.60491,-576.47553c-0.37973,-0.63291 -0.44304,-1.32905 -0.18986,-2.08851c0.25318,-0.75946 0.79106,-1.36066 1.61384,-1.80371c0.82278,-0.44305 1.69292,-0.6012 2.61063,-0.47466c0.91771,0.12654 1.56638,0.50628 1.94611,1.13919c0.31641,0.63291 0.33227,1.32904 0.04747,2.0885c-0.2848,0.75946 -0.83853,1.36066 -1.66131,1.80371c-0.82278,0.44305 -1.67717,0.6012 -2.56317,0.47466c-0.886,-0.12654 -1.4873,-0.50627 -1.80371,-1.13918zM-281.81405,-580.55761c-0.37973,0.56959 -0.99679,0.91771 -1.85118,1.04425c-0.85439,0.12654 -1.69292,-0.03161 -2.5157,-0.47466c-0.82278,-0.44305 -1.36066,-1.01264 -1.61384,-1.70878c-0.25318,-0.69614 -0.18987,-1.36066 0.18986,-1.99357c0.31641,-0.56959 0.93347,-0.94933 1.85118,-1.13919c0.91771,-0.18986 1.75624,-0.06332 2.5157,0.37973c0.75946,0.44305 1.26573,1.04425 1.51891,1.80371c0.25318,0.75946 0.22148,1.4556 -0.09493,2.08851zM-301.37006,-574.29209c-0.18986,-0.31641 -0.06332,-0.71199 0.37973,-1.18665c0.44305,-0.47466 1.07586,-0.90186 1.89864,-1.28159c0.82278,-0.37973 1.56638,-0.6012 2.2309,-0.66452c0.66452,-0.06332 1.06011,0.06332 1.18665,0.37973c0.12654,0.31641 -0.03161,0.71199 -0.47466,1.18665c-0.44305,0.47466 -1.07586,0.90185 -1.89864,1.28158c-0.75946,0.37973 -1.47145,0.6012 -2.13597,0.66452c-0.66452,0.06332 -1.06011,-0.06331 -1.18665,-0.37972zM-301.84472,-579.22856c-0.25318,0 -0.45881,-0.07908 -0.61706,-0.23733c-0.15825,-0.15825 -0.23733,-0.33227 -0.23733,-0.52213c0,-0.18986 0.07908,-0.34812 0.23733,-0.47466c0.15825,-0.12654 0.36388,-0.18986 0.61706,-0.18986h10.53746c0.63291,0 0.94932,0.22147 0.94932,0.66452c0,0.25318 -0.07908,0.44305 -0.23733,0.56959c-0.15825,0.12654 -0.39558,0.18987 -0.71199,0.18987zM-295.67414,-582.83598c-0.12654,0.31641 -0.52213,0.44305 -1.18665,0.37973c-0.66452,-0.06332 -1.40812,-0.2848 -2.2309,-0.66453c-0.82278,-0.37973 -1.45559,-0.80692 -1.89864,-1.28158c-0.44305,-0.47466 -0.56959,-0.87024 -0.37973,-1.18665c0.12654,-0.31641 0.52213,-0.44305 1.18665,-0.37973c0.66452,0.06332 1.37651,0.28479 2.13597,0.66452c0.82278,0.37973 1.45559,0.80693 1.89864,1.28159c0.44305,0.47466 0.6012,0.87024 0.47466,1.18665zM-266.05532,-582.83598c-0.12654,-0.31641 0.03161,-0.71199 0.47466,-1.18665c0.44305,-0.47466 1.07586,-0.90186 1.89864,-1.28159c0.75946,-0.37973 1.47145,-0.6012 2.13597,-0.66452c0.66452,-0.06332 1.09172,0.06332 1.28158,0.37973c0.12654,0.31641 -0.03161,0.71199 -0.47466,1.18665c-0.44305,0.47466 -1.07586,0.90185 -1.89864,1.28158c-0.75946,0.37973 -1.4873,0.60121 -2.18344,0.66453c-0.69614,0.06332 -1.10757,-0.06332 -1.23411,-0.37973zM-270.51713,-579.22856c-0.25318,0 -0.45881,-0.07908 -0.61706,-0.23733c-0.15825,-0.15825 -0.23733,-0.33227 -0.23733,-0.52213c0,-0.18986 0.07908,-0.34812 0.23733,-0.47466c0.15825,-0.12654 0.36388,-0.18986 0.61706,-0.18986h10.63239c0.25318,0 0.45881,0.06332 0.61706,0.18986c0.15825,0.12654 0.23733,0.2848 0.23733,0.47466c0,0.25318 -0.07908,0.44305 -0.23733,0.56959c-0.15825,0.12654 -0.36388,0.18987 -0.61706,0.18987zM-260.26447,-574.29209c-0.18986,0.31641 -0.61706,0.44304 -1.28158,0.37972c-0.66452,-0.06332 -1.37651,-0.28479 -2.13597,-0.66452c-0.82278,-0.37973 -1.45559,-0.80692 -1.89864,-1.28158c-0.44305,-0.47466 -0.6012,-0.87024 -0.47466,-1.18665c0.12654,-0.31641 0.52213,-0.44305 1.18665,-0.37973c0.66452,0.06332 1.40812,0.28479 2.2309,0.66452c0.82278,0.37973 1.45559,0.80693 1.89864,1.28159c0.44305,0.47466 0.6012,0.87024 0.47466,1.18665z" data-paper-data="{&quot;type&quot;:&quot;Icon CompoundPath&quot;,&quot;isSubtraction&quot;:false}" fill="#470c3b"/><path d="M-193.26055,-576.95019c-0.82278,0 -1.55053,-0.31641 -2.18344,-0.94932c-0.63291,-0.63291 -0.94932,-1.39237 -0.94932,-2.27837c0,-0.886 0.31641,-1.62971 0.94932,-2.23091c0.63291,-0.6012 1.36066,-0.90185 2.18344,-0.90185c0.886,0 1.66131,0.31641 2.32583,0.94932c0.66452,0.63291 0.99679,1.36066 0.99679,2.18344c0,0.886 -0.33227,1.64546 -0.99679,2.27837c-0.66452,0.63291 -1.43983,0.94932 -2.32583,0.94932zM-193.16562,-579.32349c0.25318,0 0.45881,-0.07908 0.61706,-0.23733c0.15825,-0.15825 0.23733,-0.36388 0.23733,-0.61706c0,-0.25318 -0.07908,-0.45881 -0.23733,-0.61706c-0.15825,-0.15825 -0.36388,-0.23733 -0.61706,-0.23733c-0.25318,0 -0.45881,0.07908 -0.61706,0.23733c-0.15825,0.15825 -0.23733,0.36388 -0.23733,0.61706c0,0.25318 0.07908,0.45881 0.23733,0.61706c0.15825,0.15825 0.36388,0.23733 0.61706,0.23733zM-193.16562,-581.22214c-0.75946,0 -1.40813,-0.31641 -1.94611,-0.94932c-0.53798,-0.63291 -0.80692,-1.39237 -0.80692,-2.27837c0,-0.94932 0.26894,-1.74039 0.80692,-2.3733c0.53798,-0.63291 1.18665,-0.94932 1.94611,-0.94932c0.75946,0 1.40813,0.31641 1.94611,0.94932c0.53798,0.63291 0.80692,1.42398 0.80692,2.3733c0,0.886 -0.2848,1.64546 -0.85439,2.27837c-0.56959,0.63291 -1.2025,0.94932 -1.89864,0.94932zM-192.2163,-580.55761c-0.37973,-0.63291 -0.44304,-1.32905 -0.18986,-2.08851c0.25318,-0.75946 0.75945,-1.36066 1.51891,-1.80371c0.75946,-0.44305 1.59799,-0.56959 2.5157,-0.37973c0.91771,0.18986 1.53477,0.5696 1.85118,1.13919c0.37973,0.56959 0.45881,1.2025 0.23733,1.89864c-0.22148,0.69614 -0.64868,1.29744 -1.28159,1.80371c-0.82278,0.44305 -1.72463,0.6012 -2.70556,0.47466c-0.98093,-0.12654 -1.6297,-0.47466 -1.94611,-1.04425zM-186.52037,-576.47553c-0.37973,0.63291 -0.99679,1.01264 -1.85118,1.13918c-0.85439,0.12654 -1.69292,-0.03161 -2.5157,-0.47466c-0.82278,-0.44305 -1.37651,-1.04425 -1.66131,-1.80371c-0.2848,-0.75946 -0.23733,-1.45559 0.1424,-2.0885c0.31641,-0.63291 0.94932,-1.01265 1.89864,-1.13919c0.94932,-0.12654 1.83532,0.03161 2.6581,0.47466c0.63291,0.50627 1.10757,1.13918 1.42398,1.89864c0.31641,0.75946 0.2848,1.42399 -0.09493,1.99358zM-193.16562,-572.58332c-0.75946,0 -1.40813,-0.30065 -1.94611,-0.90185c-0.53798,-0.6012 -0.80692,-1.37652 -0.80692,-2.32584c0,-0.886 0.26894,-1.66131 0.80692,-2.32583c0.53798,-0.66452 1.18665,-0.99679 1.94611,-0.99679c0.69614,0 1.32905,0.33227 1.89864,0.99679c0.56959,0.66452 0.85439,1.43983 0.85439,2.32583c0,0.94932 -0.26894,1.72464 -0.80692,2.32584c-0.53798,0.6012 -1.18665,0.90185 -1.94611,0.90185zM-199.9058,-576.47553c-0.37973,-0.63291 -0.44304,-1.32905 -0.18986,-2.08851c0.25318,-0.75946 0.79106,-1.36066 1.61384,-1.80371c0.82278,-0.44305 1.69292,-0.6012 2.61063,-0.47466c0.91771,0.12654 1.56638,0.50628 1.94611,1.13919c0.31641,0.63291 0.33227,1.32904 0.04747,2.0885c-0.2848,0.75946 -0.83853,1.36066 -1.66131,1.80371c-0.82278,0.44305 -1.67717,0.6012 -2.56317,0.47466c-0.886,-0.12654 -1.4873,-0.50627 -1.80371,-1.13918zM-194.11494,-580.55761c-0.37973,0.56959 -0.99679,0.91771 -1.85118,1.04425c-0.85439,0.12654 -1.69292,-0.03161 -2.5157,-0.47466c-0.82278,-0.44305 -1.36066,-1.01264 -1.61384,-1.70878c-0.25318,-0.69614 -0.18987,-1.36066 0.18986,-1.99357c0.31641,-0.56959 0.93347,-0.94933 1.85118,-1.13919c0.91771,-0.18986 1.75624,-0.06332 2.5157,0.37973c0.75946,0.44305 1.26573,1.04425 1.51891,1.80371c0.25318,0.75946 0.22148,1.4556 -0.09493,2.08851zM-213.67095,-574.29209c-0.18986,-0.31641 -0.06332,-0.71199 0.37973,-1.18665c0.44305,-0.47466 1.07586,-0.90186 1.89864,-1.28159c0.82278,-0.37973 1.56638,-0.6012 2.2309,-0.66452c0.66452,-0.06332 1.06011,0.06332 1.18665,0.37973c0.12654,0.31641 -0.03161,0.71199 -0.47466,1.18665c-0.44305,0.47466 -1.07586,0.90185 -1.89864,1.28158c-0.75946,0.37973 -1.47145,0.6012 -2.13597,0.66452c-0.66452,0.06332 -1.06011,-0.06331 -1.18665,-0.37972zM-214.14561,-579.22856c-0.25318,0 -0.45881,-0.07908 -0.61706,-0.23733c-0.15825,-0.15825 -0.23733,-0.33227 -0.23733,-0.52213c0,-0.18986 0.07908,-0.34812 0.23733,-0.47466c0.15825,-0.12654 0.36388,-0.18986 0.61706,-0.18986h10.53746c0.63291,0 0.94932,0.22147 0.94932,0.66452c0,0.25318 -0.07908,0.44305 -0.23733,0.56959c-0.15825,0.12654 -0.39558,0.18987 -0.71199,0.18987zM-207.97503,-582.83598c-0.12654,0.31641 -0.52213,0.44305 -1.18665,0.37973c-0.66452,-0.06332 -1.40812,-0.2848 -2.2309,-0.66453c-0.82278,-0.37973 -1.45559,-0.80692 -1.89864,-1.28158c-0.44305,-0.47466 -0.56959,-0.87024 -0.37973,-1.18665c0.12654,-0.31641 0.52213,-0.44305 1.18665,-0.37973c0.66452,0.06332 1.37651,0.28479 2.13597,0.66452c0.82278,0.37973 1.45559,0.80693 1.89864,1.28159c0.44305,0.47466 0.6012,0.87024 0.47466,1.18665zM-178.35621,-582.83598c-0.12654,-0.31641 0.03161,-0.71199 0.47466,-1.18665c0.44305,-0.47466 1.07586,-0.90186 1.89864,-1.28159c0.75946,-0.37973 1.47145,-0.6012 2.13597,-0.66452c0.66452,-0.06332 1.09172,0.06332 1.28158,0.37973c0.12654,0.31641 -0.03161,0.71199 -0.47466,1.18665c-0.44305,0.47466 -1.07586,0.90185 -1.89864,1.28158c-0.75946,0.37973 -1.4873,0.60121 -2.18344,0.66453c-0.69614,0.06332 -1.10757,-0.06332 -1.23411,-0.37973zM-182.81802,-579.22856c-0.25318,0 -0.45881,-0.07908 -0.61706,-0.23733c-0.15825,-0.15825 -0.23733,-0.33227 -0.23733,-0.52213c0,-0.18986 0.07908,-0.34812 0.23733,-0.47466c0.15825,-0.12654 0.36388,-0.18986 0.61706,-0.18986h10.63239c0.25318,0 0.45881,0.06332 0.61706,0.18986c0.15825,0.12654 0.23733,0.2848 0.23733,0.47466c0,0.25318 -0.07908,0.44305 -0.23733,0.56959c-0.15825,0.12654 -0.36388,0.18987 -0.61706,0.18987zM-172.56536,-574.29209c-0.18986,0.31641 -0.61706,0.44304 -1.28158,0.37972c-0.66452,-0.06332 -1.37651,-0.28479 -2.13597,-0.66452c-0.82278,-0.37973 -1.45559,-0.80692 -1.89864,-1.28158c-0.44305,-0.47466 -0.6012,-0.87024 -0.47466,-1.18665c0.12654,-0.31641 0.52213,-0.44305 1.18665,-0.37973c0.66452,0.06332 1.40812,0.28479 2.2309,0.66452c0.82278,0.37973 1.45559,0.80693 1.89864,1.28159c0.44305,0.47466 0.6012,0.87024 0.47466,1.18665z" data-paper-data="{&quot;type&quot;:&quot;Icon CompoundPath&quot;,&quot;isSubtraction&quot;:false}" fill="#470c3b"/><path d="M-236.95966,-576.95019c-0.82278,0 -1.55053,-0.31641 -2.18344,-0.94932c-0.63291,-0.63291 -0.94932,-1.39237 -0.94932,-2.27837c0,-0.886 0.31641,-1.62971 0.94932,-2.23091c0.63291,-0.6012 1.36066,-0.90185 2.18344,-0.90185c0.886,0 1.66131,0.31641 2.32583,0.94932c0.66452,0.63291 0.99679,1.36066 0.99679,2.18344c0,0.886 -0.33227,1.64546 -0.99679,2.27837c-0.66452,0.63291 -1.43983,0.94932 -2.32583,0.94932zM-236.86473,-579.32349c0.25318,0 0.45881,-0.07908 0.61706,-0.23733c0.15825,-0.15825 0.23733,-0.36388 0.23733,-0.61706c0,-0.25318 -0.07908,-0.45881 -0.23733,-0.61706c-0.15825,-0.15825 -0.36388,-0.23733 -0.61706,-0.23733c-0.25318,0 -0.45881,0.07908 -0.61706,0.23733c-0.15825,0.15825 -0.23733,0.36388 -0.23733,0.61706c0,0.25318 0.07908,0.45881 0.23733,0.61706c0.15825,0.15825 0.36388,0.23733 0.61706,0.23733zM-236.86473,-581.22214c-0.75946,0 -1.40813,-0.31641 -1.94611,-0.94932c-0.53798,-0.63291 -0.80692,-1.39237 -0.80692,-2.27837c0,-0.94932 0.26894,-1.74039 0.80692,-2.3733c0.53798,-0.63291 1.18665,-0.94932 1.94611,-0.94932c0.75946,0 1.40813,0.31641 1.94611,0.94932c0.53798,0.63291 0.80692,1.42398 0.80692,2.3733c0,0.886 -0.2848,1.64546 -0.85439,2.27837c-0.56959,0.63291 -1.2025,0.94932 -1.89864,0.94932zM-235.91541,-580.55761c-0.37973,-0.63291 -0.44304,-1.32905 -0.18986,-2.08851c0.25318,-0.75946 0.75945,-1.36066 1.51891,-1.80371c0.75946,-0.44305 1.59799,-0.56959 2.5157,-0.37973c0.91771,0.18986 1.53477,0.5696 1.85118,1.13919c0.37973,0.56959 0.45881,1.2025 0.23733,1.89864c-0.22148,0.69614 -0.64868,1.29744 -1.28159,1.80371c-0.82278,0.44305 -1.72463,0.6012 -2.70556,0.47466c-0.98093,-0.12654 -1.6297,-0.47466 -1.94611,-1.04425zM-230.21948,-576.47553c-0.37973,0.63291 -0.99679,1.01264 -1.85118,1.13918c-0.85439,0.12654 -1.69292,-0.03161 -2.5157,-0.47466c-0.82278,-0.44305 -1.37651,-1.04425 -1.66131,-1.80371c-0.2848,-0.75946 -0.23733,-1.45559 0.1424,-2.0885c0.31641,-0.63291 0.94932,-1.01265 1.89864,-1.13919c0.94932,-0.12654 1.83532,0.03161 2.6581,0.47466c0.63291,0.50627 1.10757,1.13918 1.42398,1.89864c0.31641,0.75946 0.2848,1.42399 -0.09493,1.99358zM-236.86473,-572.58332c-0.75946,0 -1.40813,-0.30065 -1.94611,-0.90185c-0.53798,-0.6012 -0.80692,-1.37652 -0.80692,-2.32584c0,-0.886 0.26894,-1.66131 0.80692,-2.32583c0.53798,-0.66452 1.18665,-0.99679 1.94611,-0.99679c0.69614,0 1.32905,0.33227 1.89864,0.99679c0.56959,0.66452 0.85439,1.43983 0.85439,2.32583c0,0.94932 -0.26894,1.72464 -0.80692,2.32584c-0.53798,0.6012 -1.18665,0.90185 -1.94611,0.90185zM-243.60491,-576.47553c-0.37973,-0.63291 -0.44304,-1.32905 -0.18986,-2.08851c0.25318,-0.75946 0.79106,-1.36066 1.61384,-1.80371c0.82278,-0.44305 1.69292,-0.6012 2.61063,-0.47466c0.91771,0.12654 1.56638,0.50628 1.94611,1.13919c0.31641,0.63291 0.33227,1.32904 0.04747,2.0885c-0.2848,0.75946 -0.83853,1.36066 -1.66131,1.80371c-0.82278,0.44305 -1.67717,0.6012 -2.56317,0.47466c-0.886,-0.12654 -1.4873,-0.50627 -1.80371,-1.13918zM-237.81405,-580.55761c-0.37973,0.56959 -0.99679,0.91771 -1.85118,1.04425c-0.85439,0.12654 -1.69292,-0.03161 -2.5157,-0.47466c-0.82278,-0.44305 -1.36066,-1.01264 -1.61384,-1.70878c-0.25318,-0.69614 -0.18987,-1.36066 0.18986,-1.99357c0.31641,-0.56959 0.93347,-0.94933 1.85118,-1.13919c0.91771,-0.18986 1.75624,-0.06332 2.5157,0.37973c0.75946,0.44305 1.26573,1.04425 1.51891,1.80371c0.25318,0.75946 0.22148,1.4556 -0.09493,2.08851zM-257.37006,-574.29209c-0.18986,-0.31641 -0.06332,-0.71199 0.37973,-1.18665c0.44305,-0.47466 1.07586,-0.90186 1.89864,-1.28159c0.82278,-0.37973 1.56638,-0.6012 2.2309,-0.66452c0.66452,-0.06332 1.06011,0.06332 1.18665,0.37973c0.12654,0.31641 -0.03161,0.71199 -0.47466,1.18665c-0.44305,0.47466 -1.07586,0.90185 -1.89864,1.28158c-0.75946,0.37973 -1.47145,0.6012 -2.13597,0.66452c-0.66452,0.06332 -1.06011,-0.06331 -1.18665,-0.37972zM-257.84472,-579.22856c-0.25318,0 -0.45881,-0.07908 -0.61706,-0.23733c-0.15825,-0.15825 -0.23733,-0.33227 -0.23733,-0.52213c0,-0.18986 0.07908,-0.34812 0.23733,-0.47466c0.15825,-0.12654 0.36388,-0.18986 0.61706,-0.18986h10.53746c0.63291,0 0.94932,0.22147 0.94932,0.66452c0,0.25318 -0.07908,0.44305 -0.23733,0.56959c-0.15825,0.12654 -0.39558,0.18987 -0.71199,0.18987zM-251.67414,-582.83598c-0.12654,0.31641 -0.52213,0.44305 -1.18665,0.37973c-0.66452,-0.06332 -1.40812,-0.2848 -2.2309,-0.66453c-0.82278,-0.37973 -1.45559,-0.80692 -1.89864,-1.28158c-0.44305,-0.47466 -0.56959,-0.87024 -0.37973,-1.18665c0.12654,-0.31641 0.52213,-0.44305 1.18665,-0.37973c0.66452,0.06332 1.37651,0.28479 2.13597,0.66452c0.82278,0.37973 1.45559,0.80693 1.89864,1.28159c0.44305,0.47466 0.6012,0.87024 0.47466,1.18665zM-222.05532,-582.83598c-0.12654,-0.31641 0.03161,-0.71199 0.47466,-1.18665c0.44305,-0.47466 1.07586,-0.90186 1.89864,-1.28159c0.75946,-0.37973 1.47145,-0.6012 2.13597,-0.66452c0.66452,-0.06332 1.09172,0.06332 1.28158,0.37973c0.12654,0.31641 -0.03161,0.71199 -0.47466,1.18665c-0.44305,0.47466 -1.07586,0.90185 -1.89864,1.28158c-0.75946,0.37973 -1.4873,0.60121 -2.18344,0.66453c-0.69614,0.06332 -1.10757,-0.06332 -1.23411,-0.37973zM-226.51713,-579.22856c-0.25318,0 -0.45881,-0.07908 -0.61706,-0.23733c-0.15825,-0.15825 -0.23733,-0.33227 -0.23733,-0.52213c0,-0.18986 0.07908,-0.34812 0.23733,-0.47466c0.15825,-0.12654 0.36388,-0.18986 0.61706,-0.18986h10.63239c0.25318,0 0.45881,0.06332 0.61706,0.18986c0.15825,0.12654 0.23733,0.2848 0.23733,0.47466c0,0.25318 -0.07908,0.44305 -0.23733,0.56959c-0.15825,0.12654 -0.36388,0.18987 -0.61706,0.18987zM-216.26447,-574.29209c-0.18986,0.31641 -0.61706,0.44304 -1.28158,0.37972c-0.66452,-0.06332 -1.37651,-0.28479 -2.13597,-0.66452c-0.82278,-0.37973 -1.45559,-0.80692 -1.89864,-1.28158c-0.44305,-0.47466 -0.6012,-0.87024 -0.47466,-1.18665c0.12654,-0.31641 0.52213,-0.44305 1.18665,-0.37973c0.66452,0.06332 1.40812,0.28479 2.2309,0.66452c0.82278,0.37973 1.45559,0.80693 1.89864,1.28159c0.44305,0.47466 0.6012,0.87024 0.47466,1.18665z" data-paper-data="{&quot;type&quot;:&quot;Icon CompoundPath&quot;,&quot;isSubtraction&quot;:false}" fill="#470c3b"/><path d="M-149.26055,-576.95019c-0.82278,0 -1.55053,-0.31641 -2.18344,-0.94932c-0.63291,-0.63291 -0.94932,-1.39237 -0.94932,-2.27837c0,-0.886 0.31641,-1.62971 0.94932,-2.23091c0.63291,-0.6012 1.36066,-0.90185 2.18344,-0.90185c0.886,0 1.66131,0.31641 2.32583,0.94932c0.66452,0.63291 0.99679,1.36066 0.99679,2.18344c0,0.886 -0.33227,1.64546 -0.99679,2.27837c-0.66452,0.63291 -1.43983,0.94932 -2.32583,0.94932zM-149.16562,-579.32349c0.25318,0 0.45881,-0.07908 0.61706,-0.23733c0.15825,-0.15825 0.23733,-0.36388 0.23733,-0.61706c0,-0.25318 -0.07908,-0.45881 -0.23733,-0.61706c-0.15825,-0.15825 -0.36388,-0.23733 -0.61706,-0.23733c-0.25318,0 -0.45881,0.07908 -0.61706,0.23733c-0.15825,0.15825 -0.23733,0.36388 -0.23733,0.61706c0,0.25318 0.07908,0.45881 0.23733,0.61706c0.15825,0.15825 0.36388,0.23733 0.61706,0.23733zM-149.16562,-581.22214c-0.75946,0 -1.40813,-0.31641 -1.94611,-0.94932c-0.53798,-0.63291 -0.80692,-1.39237 -0.80692,-2.27837c0,-0.94932 0.26894,-1.74039 0.80692,-2.3733c0.53798,-0.63291 1.18665,-0.94932 1.94611,-0.94932c0.75946,0 1.40813,0.31641 1.94611,0.94932c0.53798,0.63291 0.80692,1.42398 0.80692,2.3733c0,0.886 -0.2848,1.64546 -0.85439,2.27837c-0.56959,0.63291 -1.2025,0.94932 -1.89864,0.94932zM-148.2163,-580.55761c-0.37973,-0.63291 -0.44304,-1.32905 -0.18986,-2.08851c0.25318,-0.75946 0.75945,-1.36066 1.51891,-1.80371c0.75946,-0.44305 1.59799,-0.56959 2.5157,-0.37973c0.91771,0.18986 1.53477,0.5696 1.85118,1.13919c0.37973,0.56959 0.45881,1.2025 0.23733,1.89864c-0.22148,0.69614 -0.64868,1.29744 -1.28159,1.80371c-0.82278,0.44305 -1.72463,0.6012 -2.70556,0.47466c-0.98093,-0.12654 -1.6297,-0.47466 -1.94611,-1.04425zM-142.52037,-576.47553c-0.37973,0.63291 -0.99679,1.01264 -1.85118,1.13918c-0.85439,0.12654 -1.69292,-0.03161 -2.5157,-0.47466c-0.82278,-0.44305 -1.37651,-1.04425 -1.66131,-1.80371c-0.2848,-0.75946 -0.23733,-1.45559 0.1424,-2.0885c0.31641,-0.63291 0.94932,-1.01265 1.89864,-1.13919c0.94932,-0.12654 1.83532,0.03161 2.6581,0.47466c0.63291,0.50627 1.10757,1.13918 1.42398,1.89864c0.31641,0.75946 0.2848,1.42399 -0.09493,1.99358zM-149.16562,-572.58332c-0.75946,0 -1.40813,-0.30065 -1.94611,-0.90185c-0.53798,-0.6012 -0.80692,-1.37652 -0.80692,-2.32584c0,-0.886 0.26894,-1.66131 0.80692,-2.32583c0.53798,-0.66452 1.18665,-0.99679 1.94611,-0.99679c0.69614,0 1.32905,0.33227 1.89864,0.99679c0.56959,0.66452 0.85439,1.43983 0.85439,2.32583c0,0.94932 -0.26894,1.72464 -0.80692,2.32584c-0.53798,0.6012 -1.18665,0.90185 -1.94611,0.90185zM-155.9058,-576.47553c-0.37973,-0.63291 -0.44304,-1.32905 -0.18986,-2.08851c0.25318,-0.75946 0.79106,-1.36066 1.61384,-1.80371c0.82278,-0.44305 1.69292,-0.6012 2.61063,-0.47466c0.91771,0.12654 1.56638,0.50628 1.94611,1.13919c0.31641,0.63291 0.33227,1.32904 0.04747,2.0885c-0.2848,0.75946 -0.83853,1.36066 -1.66131,1.80371c-0.82278,0.44305 -1.67717,0.6012 -2.56317,0.47466c-0.886,-0.12654 -1.4873,-0.50627 -1.80371,-1.13918zM-150.11494,-580.55761c-0.37973,0.56959 -0.99679,0.91771 -1.85118,1.04425c-0.85439,0.12654 -1.69292,-0.03161 -2.5157,-0.47466c-0.82278,-0.44305 -1.36066,-1.01264 -1.61384,-1.70878c-0.25318,-0.69614 -0.18987,-1.36066 0.18986,-1.99357c0.31641,-0.56959 0.93347,-0.94933 1.85118,-1.13919c0.91771,-0.18986 1.75624,-0.06332 2.5157,0.37973c0.75946,0.44305 1.26573,1.04425 1.51891,1.80371c0.25318,0.75946 0.22148,1.4556 -0.09493,2.08851zM-169.67095,-574.29209c-0.18986,-0.31641 -0.06332,-0.71199 0.37973,-1.18665c0.44305,-0.47466 1.07586,-0.90186 1.89864,-1.28159c0.82278,-0.37973 1.56638,-0.6012 2.2309,-0.66452c0.66452,-0.06332 1.06011,0.06332 1.18665,0.37973c0.12654,0.31641 -0.03161,0.71199 -0.47466,1.18665c-0.44305,0.47466 -1.07586,0.90185 -1.89864,1.28158c-0.75946,0.37973 -1.47145,0.6012 -2.13597,0.66452c-0.66452,0.06332 -1.06011,-0.06331 -1.18665,-0.37972zM-170.14561,-579.22856c-0.25318,0 -0.45881,-0.07908 -0.61706,-0.23733c-0.15825,-0.15825 -0.23733,-0.33227 -0.23733,-0.52213c0,-0.18986 0.07908,-0.34812 0.23733,-0.47466c0.15825,-0.12654 0.36388,-0.18986 0.61706,-0.18986h10.53746c0.63291,0 0.94932,0.22147 0.94932,0.66452c0,0.25318 -0.07908,0.44305 -0.23733,0.56959c-0.15825,0.12654 -0.39558,0.18987 -0.71199,0.18987zM-163.97503,-582.83598c-0.12654,0.31641 -0.52213,0.44305 -1.18665,0.37973c-0.66452,-0.06332 -1.40812,-0.2848 -2.2309,-0.66453c-0.82278,-0.37973 -1.45559,-0.80692 -1.89864,-1.28158c-0.44305,-0.47466 -0.56959,-0.87024 -0.37973,-1.18665c0.12654,-0.31641 0.52213,-0.44305 1.18665,-0.37973c0.66452,0.06332 1.37651,0.28479 2.13597,0.66452c0.82278,0.37973 1.45559,0.80693 1.89864,1.28159c0.44305,0.47466 0.6012,0.87024 0.47466,1.18665zM-134.35621,-582.83598c-0.12654,-0.31641 0.03161,-0.71199 0.47466,-1.18665c0.44305,-0.47466 1.07586,-0.90186 1.89864,-1.28159c0.75946,-0.37973 1.47145,-0.6012 2.13597,-0.66452c0.66452,-0.06332 1.09172,0.06332 1.28158,0.37973c0.12654,0.31641 -0.03161,0.71199 -0.47466,1.18665c-0.44305,0.47466 -1.07586,0.90185 -1.89864,1.28158c-0.75946,0.37973 -1.4873,0.60121 -2.18344,0.66453c-0.69614,0.06332 -1.10757,-0.06332 -1.23411,-0.37973zM-138.81802,-579.22856c-0.25318,0 -0.45881,-0.07908 -0.61706,-0.23733c-0.15825,-0.15825 -0.23733,-0.33227 -0.23733,-0.52213c0,-0.18986 0.07908,-0.34812 0.23733,-0.47466c0.15825,-0.12654 0.36388,-0.18986 0.61706,-0.18986h10.63239c0.25318,0 0.45881,0.06332 0.61706,0.18986c0.15825,0.12654 0.23733,0.2848 0.23733,0.47466c0,0.25318 -0.07908,0.44305 -0.23733,0.56959c-0.15825,0.12654 -0.36388,0.18987 -0.61706,0.18987zM-128.56536,-574.29209c-0.18986,0.31641 -0.61706,0.44304 -1.28158,0.37972c-0.66452,-0.06332 -1.37651,-0.28479 -2.13597,-0.66452c-0.82278,-0.37973 -1.45559,-0.80692 -1.89864,-1.28158c-0.44305,-0.47466 -0.6012,-0.87024 -0.47466,-1.18665c0.12654,-0.31641 0.52213,-0.44305 1.18665,-0.37973c0.66452,0.06332 1.40812,0.28479 2.2309,0.66452c0.82278,0.37973 1.45559,0.80693 1.89864,1.28159c0.44305,0.47466 0.6012,0.87024 0.47466,1.18665z" data-paper-data="{&quot;type&quot;:&quot;Icon CompoundPath&quot;,&quot;isSubtraction&quot;:false}" fill="#470c3b"/></g></svg>