<svg version="1.1" xmlns="http://www.w3.org/2000/svg" xmlns:xlink="http://www.w3.org/1999/xlink" width="228.2054" height="71.85532" viewBox="-352.43361,-662.20222,228.2054,71.85532" id="Actual Size"><g fill="none" fill-rule="nonzero" stroke="none" stroke-width="1" stroke-linecap="butt" stroke-linejoin="miter" stroke-miterlimit="10" stroke-dasharray="" stroke-dashoffset="0" font-family="none" font-weight="none" font-size="none" text-anchor="none" style="mix-blend-mode: normal"><path d="M-352.43361,-590.3469v-71.85532h228.2054v71.85532z" fill="none"/><path d="M-323.45361,-599.14445c-4.08,2.09333 -8.16,3.14 -12.24,3.14c-5.49333,0 -9.65667,-1.03333 -12.49,-3.1c-2.83333,-2.06667 -4.25,-5.08333 -4.25,-9.05c0,-8.10667 5.38333,-12.16 16.15,-12.16h8.92c0,-3.28667 -0.69333,-5.71 -2.08,-7.27c-1.38667,-1.56 -3.1,-2.34 -5.14,-2.34c-1.24667,0 -2.39667,0.08667 -3.45,0.26c-1.04667,0.17333 -2.08,0.42667 -3.1,0.76l-0.76,4l-8.93,-1.11l1.62,-9.52c2.32,-0.78667 4.71333,-1.39333 7.18,-1.82c2.46667,-0.42667 5.08667,-0.64 7.86,-0.64c5.66667,0 10.01667,1.48667 13.05,4.46c3.03333,2.98 4.55,7.36 4.55,13.14v13.85l6.88,2.21l-2.97,8.84zM-336.03361,-613.60445c-1.75333,0 -3.1,0.47 -4.04,1.41c-0.93333,0.93333 -1.4,2.22333 -1.4,3.87c0,3 2.04,4.5 6.12,4.5c2.83333,0 5.49667,-0.73667 7.99,-2.21v-7.57z" data-paper-data="{&quot;type&quot;:&quot;Letter CompoundPath&quot;,&quot;isSubtraction&quot;:false}" fill="#470c3b"/><path d="M-316.03867,-662.20222l14.88,5.1v29.32h6.37l4.76,-7.99h-4.33v-7.4h20.06v7.4h-6.55l-7.31,11.31l7.74,11.73h7.14v7.39h-11.82l-9.52,-15.13h-6.54v7.74h2.97v7.39h-19.38v-7.39h7.14v-39.28l-8.07,-2.72z" data-paper-data="{&quot;type&quot;:&quot;Letter CompoundPath&quot;,&quot;isSubtraction&quot;:false}" fill="#470c3b"/><path d="M-261.07361,-635.667c4.02,0 7.47667,0.79333 10.37,2.38c2.88667,1.58667 5.12333,3.88 6.71,6.88c1.58667,3.00667 2.38,6.60667 2.38,10.8c0,6.23333 -1.75667,11.12 -5.27,14.66c-3.51333,3.54667 -8.24333,5.32 -14.19,5.32c-3.85333,0 -7.22667,-0.79333 -10.12,-2.38c-2.88667,-1.59333 -5.11,-3.89 -6.67,-6.89c-1.56,-3 -2.34,-6.57 -2.34,-10.71c0,-4.19333 0.78,-7.79333 2.34,-10.8c1.56,-3 3.78333,-5.29333 6.67,-6.88c2.89333,-1.58667 6.26667,-2.38 10.12,-2.38zM-260.99361,-629.117c-3.68,0 -6.45667,1.17333 -8.33,3.52c-1.86667,2.35333 -2.8,5.68333 -2.8,9.99c0,4.30667 0.93333,7.62 2.8,9.94c1.87333,2.32667 4.65,3.49 8.33,3.49c3.74,0 6.56,-1.16333 8.46,-3.49c1.9,-2.32 2.85,-5.63333 2.85,-9.94c0,-4.30667 -0.95,-7.63667 -2.85,-9.99c-1.9,-2.34667 -4.72,-3.52 -8.46,-3.52z" data-paper-data="{&quot;type&quot;:&quot;Letter CompoundPath&quot;,&quot;isSubtraction&quot;:false}" fill="#470c3b"/><path d="M-244.38043,-655.63944c2.04,-1.30667 4.25,-2.31333 6.63,-3.02c2.38,-0.70667 4.76,-1.06 7.14,-1.06c2.1,0 3.37667,0.11333 3.83,0.34l1.44,9.27l-6.03,1.27l-0.85,-4.68c-1.76,0 -3.54667,0.25667 -5.36,0.77c-1.81333,0.50667 -3.42667,1.21333 -4.84,2.12v23.21h8.33v5.78h-22.78v-5.78h7.14v-23.55l-8.16,-2.8l1.95,-5.78z" data-paper-data="{&quot;type&quot;:&quot;Letter CompoundPath&quot;,&quot;isSubtraction&quot;:false}" fill="#470c3b"/><path d="M-234.67683,-591.46858v-5.44h7.14v-42.59l-8.42,-1.95l1.45,-5.52l13.77,3.22v46.84h7.14v5.44z" data-paper-data="{&quot;type&quot;:&quot;Letter CompoundPath&quot;,&quot;isSubtraction&quot;:false}" fill="#470c3b"/><path d="M-208.99543,-611.50815c1.41333,0 2.64333,0.52333 3.69,1.57c1.05333,1.04667 1.58,2.28 1.58,3.7c0,1.41333 -0.52667,2.64333 -1.58,3.69c-1.04667,1.05333 -2.27667,1.58 -3.69,1.58c-1.42,0 -2.65333,-0.52667 -3.7,-1.58c-1.04667,-1.04667 -1.57,-2.27667 -1.57,-3.69c0,-1.42 0.52333,-2.65333 1.57,-3.7c1.04667,-1.04667 2.28,-1.57 3.7,-1.57z" data-paper-data="{&quot;type&quot;:&quot;Letter CompoundPath&quot;,&quot;isSubtraction&quot;:false}" fill="#470c3b"/><path d="M-206.50182,-593.49133v-4.53176h6.25977l9.36,-11.088l-10.224,-10.80847h-5.39577v-4.464h16.33977v4.464h-3.81177l7.632,8.14023l6.69177,-8.14023h-3.168v-4.464h14.4v4.464h-5.39577l-9.43623,11.30823l10.08,10.58824h6.048v4.53176h-16.416v-4.53176h3.24423l-7.488,-7.78447l-6.55623,7.78447h3.168v4.53176z" data-paper-data="{&quot;type&quot;:&quot;Letter CompoundPath&quot;,&quot;isSubtraction&quot;:false}" fill="#470c3b"/><path d="M-169.79972,-603.5084c-0.76667,0 -1.55667,-0.06 -2.37,-0.18c-0.82,-0.12 -1.68333,-0.34667 -2.59,-0.68l0.93,-4.54c0.67333,0.19333 1.29667,0.33667 1.87,0.43c0.58,0.1 1.15667,0.15 1.73,0.15c1.34667,0 2.44,-0.20333 3.28,-0.61c0.84,-0.41333 1.62,-1.22 2.34,-2.42c0.72,-1.2 1.46333,-2.97333 2.23,-5.32l10.3,-29.45h-3.96l0.07,-4.68h14.69v4.68h-5.19l-11.95,32.69c-1.15333,3.21333 -2.66667,5.67333 -4.54,7.38c-1.86667,1.7 -4.14667,2.55 -6.84,2.55zM-160.79972,-614.7384l-14.68,-31.39h-5.19v-4.68h15.34v4.68h-4.11l11.09,25.27z" data-paper-data="{&quot;type&quot;:&quot;Letter CompoundPath&quot;,&quot;isSubtraction&quot;:false}" fill="#470c3b"/><path d="M-152.30821,-590.3469v-4.38777l18.78777,-21.75247h-13.392l-0.78777,4.032l-5.616,-1.14353l1.584,-8.064h25.84377v4.176l-19.008,21.95577h14.256l0.72,-4.39624l5.69223,1.08424l-1.66023,8.496z" data-paper-data="{&quot;type&quot;:&quot;Letter CompoundPath&quot;,&quot;isSubtraction&quot;:false}" fill="#470c3b"/></g></svg>